<mxfile host="app.diagrams.net" modified="2022-03-14T09:39:03.027Z" agent="5.0 (Macintosh; Intel Mac OS X 10_15_7) AppleWebKit/605.1.15 (KHTML, like Gecko) Version/15.2 Safari/605.1.15" etag="yGzHut2DuZCq-YprJ_NI" version="17.1.2" type="github" pages="2">
  <diagram id="ps0TUvUx2SFWj05R7lTL" name="Page-1">
    <mxGraphModel dx="830" dy="512" grid="1" gridSize="10" guides="1" tooltips="1" connect="1" arrows="1" fold="1" page="1" pageScale="1" pageWidth="827" pageHeight="1169" math="0" shadow="0">
      <root>
        <mxCell id="0" />
        <mxCell id="1" parent="0" />
        <mxCell id="9qkErvsrIEReRTzUVo6O-1" value="Utilisateur" style="swimlane;fontStyle=0;childLayout=stackLayout;horizontal=1;startSize=30;horizontalStack=0;resizeParent=1;resizeParentMax=0;resizeLast=0;collapsible=1;marginBottom=0;" vertex="1" parent="1">
          <mxGeometry x="60" y="70" width="140" height="170" as="geometry" />
        </mxCell>
        <mxCell id="9qkErvsrIEReRTzUVo6O-2" value="Id_utilisateur&#xa;&#xa;Login&#xa;&#xa;Tranche d&#39;age&#xa;&#xa;Sexe&#xa;&#xa;Besoin énergétique" style="text;strokeColor=none;fillColor=none;align=left;verticalAlign=middle;spacingLeft=4;spacingRight=4;overflow=hidden;points=[[0,0.5],[1,0.5]];portConstraint=eastwest;rotatable=0;" vertex="1" parent="9qkErvsrIEReRTzUVo6O-1">
          <mxGeometry y="30" width="140" height="140" as="geometry" />
        </mxCell>
        <mxCell id="9qkErvsrIEReRTzUVo6O-8" value="Aliment" style="swimlane;fontStyle=0;childLayout=stackLayout;horizontal=1;startSize=30;horizontalStack=0;resizeParent=1;resizeParentMax=0;resizeLast=0;collapsible=1;marginBottom=0;" vertex="1" parent="1">
          <mxGeometry x="370" y="80" width="140" height="110" as="geometry" />
        </mxCell>
        <mxCell id="9qkErvsrIEReRTzUVo6O-9" value="Id_aliment&#xa;&#xa;Date&#xa;&#xa;Calories" style="text;strokeColor=none;fillColor=none;align=left;verticalAlign=middle;spacingLeft=4;spacingRight=4;overflow=hidden;points=[[0,0.5],[1,0.5]];portConstraint=eastwest;rotatable=0;" vertex="1" parent="9qkErvsrIEReRTzUVo6O-8">
          <mxGeometry y="30" width="140" height="80" as="geometry" />
        </mxCell>
        <mxCell id="9qkErvsrIEReRTzUVo6O-10" value="Composition" style="swimlane;fontStyle=0;childLayout=stackLayout;horizontal=1;startSize=30;horizontalStack=0;resizeParent=1;resizeParentMax=0;resizeLast=0;collapsible=1;marginBottom=0;" vertex="1" parent="1">
          <mxGeometry x="687" y="75" width="140" height="90" as="geometry" />
        </mxCell>
        <mxCell id="9qkErvsrIEReRTzUVo6O-11" value="Id_composition&#xa;&#xa;Libelle" style="text;strokeColor=none;fillColor=none;align=left;verticalAlign=middle;spacingLeft=4;spacingRight=4;overflow=hidden;points=[[0,0.5],[1,0.5]];portConstraint=eastwest;rotatable=0;" vertex="1" parent="9qkErvsrIEReRTzUVo6O-10">
          <mxGeometry y="30" width="140" height="60" as="geometry" />
        </mxCell>
        <mxCell id="9qkErvsrIEReRTzUVo6O-12" value="Quantité" style="ellipse;whiteSpace=wrap;html=1;" vertex="1" parent="1">
          <mxGeometry x="250" y="115" width="90" height="40" as="geometry" />
        </mxCell>
        <mxCell id="9qkErvsrIEReRTzUVo6O-18" value="1,n" style="text;html=1;strokeColor=none;fillColor=none;align=center;verticalAlign=middle;whiteSpace=wrap;rounded=0;" vertex="1" parent="1">
          <mxGeometry x="200" y="105" width="60" height="30" as="geometry" />
        </mxCell>
        <mxCell id="9qkErvsrIEReRTzUVo6O-19" value="0,n" style="text;html=1;strokeColor=none;fillColor=none;align=center;verticalAlign=middle;whiteSpace=wrap;rounded=0;" vertex="1" parent="1">
          <mxGeometry x="320" y="105" width="60" height="30" as="geometry" />
        </mxCell>
        <mxCell id="9qkErvsrIEReRTzUVo6O-20" value="Ratio" style="ellipse;whiteSpace=wrap;html=1;" vertex="1" parent="1">
          <mxGeometry x="550" y="115" width="90" height="40" as="geometry" />
        </mxCell>
        <mxCell id="9qkErvsrIEReRTzUVo6O-31" value="1,n" style="text;html=1;strokeColor=none;fillColor=none;align=center;verticalAlign=middle;whiteSpace=wrap;rounded=0;" vertex="1" parent="1">
          <mxGeometry x="500" y="105" width="60" height="30" as="geometry" />
        </mxCell>
        <mxCell id="9qkErvsrIEReRTzUVo6O-32" value="0,n" style="text;html=1;strokeColor=none;fillColor=none;align=center;verticalAlign=middle;whiteSpace=wrap;rounded=0;" vertex="1" parent="1">
          <mxGeometry x="630" y="105" width="60" height="30" as="geometry" />
        </mxCell>
        <mxCell id="9qkErvsrIEReRTzUVo6O-48" value="Ratio" style="ellipse;whiteSpace=wrap;html=1;" vertex="1" parent="1">
          <mxGeometry x="395" y="225" width="90" height="40" as="geometry" />
        </mxCell>
        <mxCell id="9qkErvsrIEReRTzUVo6O-57" value="0,n" style="text;html=1;strokeColor=none;fillColor=none;align=center;verticalAlign=middle;whiteSpace=wrap;rounded=0;" vertex="1" parent="1">
          <mxGeometry x="335" y="210" width="60" height="30" as="geometry" />
        </mxCell>
        <mxCell id="9qkErvsrIEReRTzUVo6O-58" value="0,n" style="text;html=1;strokeColor=none;fillColor=none;align=center;verticalAlign=middle;whiteSpace=wrap;rounded=0;" vertex="1" parent="1">
          <mxGeometry x="490" y="210" width="60" height="30" as="geometry" />
        </mxCell>
        <mxCell id="9qkErvsrIEReRTzUVo6O-59" value="Sport" style="swimlane;fontStyle=0;childLayout=stackLayout;horizontal=1;startSize=30;horizontalStack=0;resizeParent=1;resizeParentMax=0;resizeLast=0;collapsible=1;marginBottom=0;" vertex="1" parent="1">
          <mxGeometry x="60" y="380" width="140" height="90" as="geometry" />
        </mxCell>
        <mxCell id="9qkErvsrIEReRTzUVo6O-60" value="Id_sport&#xa;&#xa;Libelle" style="text;strokeColor=none;fillColor=none;align=left;verticalAlign=middle;spacingLeft=4;spacingRight=4;overflow=hidden;points=[[0,0.5],[1,0.5]];portConstraint=eastwest;rotatable=0;" vertex="1" parent="9qkErvsrIEReRTzUVo6O-59">
          <mxGeometry y="30" width="140" height="60" as="geometry" />
        </mxCell>
        <mxCell id="9qkErvsrIEReRTzUVo6O-63" value="Type_aliment" style="swimlane;fontStyle=0;childLayout=stackLayout;horizontal=1;startSize=30;horizontalStack=0;resizeParent=1;resizeParentMax=0;resizeLast=0;collapsible=1;marginBottom=0;" vertex="1" parent="1">
          <mxGeometry x="370" y="320" width="140" height="90" as="geometry" />
        </mxCell>
        <mxCell id="9qkErvsrIEReRTzUVo6O-64" value="Id_type&#xa;&#xa;Libelle" style="text;strokeColor=none;fillColor=none;align=left;verticalAlign=middle;spacingLeft=4;spacingRight=4;overflow=hidden;points=[[0,0.5],[1,0.5]];portConstraint=eastwest;rotatable=0;" vertex="1" parent="9qkErvsrIEReRTzUVo6O-63">
          <mxGeometry y="30" width="140" height="60" as="geometry" />
        </mxCell>
        <mxCell id="9qkErvsrIEReRTzUVo6O-67" value="Appartenir" style="ellipse;whiteSpace=wrap;html=1;" vertex="1" parent="1">
          <mxGeometry x="560" y="260" width="90" height="40" as="geometry" />
        </mxCell>
        <mxCell id="9qkErvsrIEReRTzUVo6O-71" value="Pratiquer" style="ellipse;whiteSpace=wrap;html=1;" vertex="1" parent="1">
          <mxGeometry x="85" y="290" width="90" height="40" as="geometry" />
        </mxCell>
        <mxCell id="9qkErvsrIEReRTzUVo6O-74" value="1,1" style="text;html=1;strokeColor=none;fillColor=none;align=center;verticalAlign=middle;whiteSpace=wrap;rounded=0;" vertex="1" parent="1">
          <mxGeometry x="120" y="250" width="60" height="30" as="geometry" />
        </mxCell>
        <mxCell id="9qkErvsrIEReRTzUVo6O-75" value="0,n" style="text;html=1;strokeColor=none;fillColor=none;align=center;verticalAlign=middle;whiteSpace=wrap;rounded=0;" vertex="1" parent="1">
          <mxGeometry x="115" y="340" width="60" height="30" as="geometry" />
        </mxCell>
        <mxCell id="9qkErvsrIEReRTzUVo6O-76" value="1,1" style="text;html=1;strokeColor=none;fillColor=none;align=center;verticalAlign=middle;whiteSpace=wrap;rounded=0;" vertex="1" parent="1">
          <mxGeometry x="575" y="190" width="60" height="30" as="geometry" />
        </mxCell>
        <mxCell id="9qkErvsrIEReRTzUVo6O-77" value="0,n" style="text;html=1;strokeColor=none;fillColor=none;align=center;verticalAlign=middle;whiteSpace=wrap;rounded=0;" vertex="1" parent="1">
          <mxGeometry x="550" y="330" width="60" height="30" as="geometry" />
        </mxCell>
        <mxCell id="PcpdH8goPA6e2npStkTK-2" value="" style="endArrow=none;html=1;rounded=0;" edge="1" parent="1">
          <mxGeometry width="50" height="50" relative="1" as="geometry">
            <mxPoint x="200" y="135" as="sourcePoint" />
            <mxPoint x="250" y="135" as="targetPoint" />
          </mxGeometry>
        </mxCell>
        <mxCell id="PcpdH8goPA6e2npStkTK-3" value="" style="endArrow=none;html=1;rounded=0;exitX=1;exitY=0.5;exitDx=0;exitDy=0;" edge="1" parent="1" source="9qkErvsrIEReRTzUVo6O-12">
          <mxGeometry width="50" height="50" relative="1" as="geometry">
            <mxPoint x="380" y="260" as="sourcePoint" />
            <mxPoint x="370" y="135" as="targetPoint" />
          </mxGeometry>
        </mxCell>
        <mxCell id="PcpdH8goPA6e2npStkTK-4" value="" style="endArrow=none;html=1;rounded=0;exitX=0;exitY=0.5;exitDx=0;exitDy=0;entryX=1;entryY=0.313;entryDx=0;entryDy=0;entryPerimeter=0;" edge="1" parent="1" source="9qkErvsrIEReRTzUVo6O-20" target="9qkErvsrIEReRTzUVo6O-9">
          <mxGeometry width="50" height="50" relative="1" as="geometry">
            <mxPoint x="380" y="260" as="sourcePoint" />
            <mxPoint x="430" y="210" as="targetPoint" />
          </mxGeometry>
        </mxCell>
        <mxCell id="PcpdH8goPA6e2npStkTK-5" value="" style="endArrow=none;html=1;rounded=0;exitX=1;exitY=0.5;exitDx=0;exitDy=0;" edge="1" parent="1" source="9qkErvsrIEReRTzUVo6O-20" target="9qkErvsrIEReRTzUVo6O-11">
          <mxGeometry width="50" height="50" relative="1" as="geometry">
            <mxPoint x="380" y="260" as="sourcePoint" />
            <mxPoint x="430" y="210" as="targetPoint" />
          </mxGeometry>
        </mxCell>
        <mxCell id="PcpdH8goPA6e2npStkTK-6" value="" style="endArrow=none;html=1;rounded=0;entryX=1;entryY=0.5;entryDx=0;entryDy=0;exitX=0.5;exitY=0;exitDx=0;exitDy=0;" edge="1" parent="1" source="9qkErvsrIEReRTzUVo6O-67" target="9qkErvsrIEReRTzUVo6O-9">
          <mxGeometry width="50" height="50" relative="1" as="geometry">
            <mxPoint x="540" y="260" as="sourcePoint" />
            <mxPoint x="590" y="210" as="targetPoint" />
            <Array as="points" />
          </mxGeometry>
        </mxCell>
        <mxCell id="PcpdH8goPA6e2npStkTK-10" value="" style="endArrow=none;html=1;rounded=0;entryX=0.5;entryY=1;entryDx=0;entryDy=0;exitX=1;exitY=0.5;exitDx=0;exitDy=0;" edge="1" parent="1" source="9qkErvsrIEReRTzUVo6O-64" target="9qkErvsrIEReRTzUVo6O-67">
          <mxGeometry width="50" height="50" relative="1" as="geometry">
            <mxPoint x="540" y="350" as="sourcePoint" />
            <mxPoint x="590" y="300" as="targetPoint" />
          </mxGeometry>
        </mxCell>
        <mxCell id="PcpdH8goPA6e2npStkTK-11" value="" style="endArrow=none;html=1;rounded=0;exitX=1;exitY=0.5;exitDx=0;exitDy=0;entryX=0.996;entryY=0.991;entryDx=0;entryDy=0;entryPerimeter=0;" edge="1" parent="1" source="9qkErvsrIEReRTzUVo6O-48" target="9qkErvsrIEReRTzUVo6O-9">
          <mxGeometry width="50" height="50" relative="1" as="geometry">
            <mxPoint x="520" y="270" as="sourcePoint" />
            <mxPoint x="510" y="160" as="targetPoint" />
          </mxGeometry>
        </mxCell>
        <mxCell id="PcpdH8goPA6e2npStkTK-12" value="" style="endArrow=none;html=1;rounded=0;entryX=0;entryY=0.5;entryDx=0;entryDy=0;exitX=0;exitY=0.998;exitDx=0;exitDy=0;exitPerimeter=0;" edge="1" parent="1" source="9qkErvsrIEReRTzUVo6O-9" target="9qkErvsrIEReRTzUVo6O-48">
          <mxGeometry width="50" height="50" relative="1" as="geometry">
            <mxPoint x="370" y="160" as="sourcePoint" />
            <mxPoint x="570" y="220" as="targetPoint" />
          </mxGeometry>
        </mxCell>
        <mxCell id="PcpdH8goPA6e2npStkTK-13" value="" style="endArrow=none;html=1;rounded=0;entryX=0.5;entryY=1.006;entryDx=0;entryDy=0;entryPerimeter=0;" edge="1" parent="1" source="9qkErvsrIEReRTzUVo6O-71" target="9qkErvsrIEReRTzUVo6O-2">
          <mxGeometry width="50" height="50" relative="1" as="geometry">
            <mxPoint x="260" y="340" as="sourcePoint" />
            <mxPoint x="310" y="290" as="targetPoint" />
          </mxGeometry>
        </mxCell>
        <mxCell id="PcpdH8goPA6e2npStkTK-14" value="" style="endArrow=none;html=1;rounded=0;exitX=0.5;exitY=0;exitDx=0;exitDy=0;" edge="1" parent="1" source="9qkErvsrIEReRTzUVo6O-59" target="9qkErvsrIEReRTzUVo6O-71">
          <mxGeometry width="50" height="50" relative="1" as="geometry">
            <mxPoint x="260" y="340" as="sourcePoint" />
            <mxPoint x="310" y="290" as="targetPoint" />
          </mxGeometry>
        </mxCell>
      </root>
    </mxGraphModel>
  </diagram>
  <diagram id="R755U7Kzt6zpGV08sWAv" name="Page-3">
    <mxGraphModel dx="830" dy="512" grid="1" gridSize="10" guides="1" tooltips="1" connect="1" arrows="1" fold="1" page="1" pageScale="1" pageWidth="827" pageHeight="1169" math="0" shadow="0">
      <root>
        <mxCell id="cGsl6UHjNJ5qutNKCn_d-0" />
        <mxCell id="cGsl6UHjNJ5qutNKCn_d-1" parent="cGsl6UHjNJ5qutNKCn_d-0" />
        <mxCell id="cGsl6UHjNJ5qutNKCn_d-2" value="UTILISATEUR" style="swimlane;fontStyle=0;childLayout=stackLayout;horizontal=1;startSize=30;horizontalStack=0;resizeParent=1;resizeParentMax=0;resizeLast=0;collapsible=1;marginBottom=0;" vertex="1" parent="cGsl6UHjNJ5qutNKCn_d-1">
          <mxGeometry x="10" y="70" width="140" height="170" as="geometry" />
        </mxCell>
        <mxCell id="W_QgTbFiwIM0ZCdwzRpV-8" value="" style="endArrow=none;html=1;rounded=0;" edge="1" parent="cGsl6UHjNJ5qutNKCn_d-2">
          <mxGeometry width="50" height="50" relative="1" as="geometry">
            <mxPoint x="10" y="60" as="sourcePoint" />
            <mxPoint x="100" y="60" as="targetPoint" />
          </mxGeometry>
        </mxCell>
        <mxCell id="cGsl6UHjNJ5qutNKCn_d-3" value="ID_UTILISATEUR&#xa;&#xa;LOGIN&#xa;&#xa;TRANCHE D&#39;AGE&#xa;&#xa;SEXE&#xa;&#xa;BESOIN ENERGITIQUE" style="text;strokeColor=none;fillColor=none;align=left;verticalAlign=middle;spacingLeft=4;spacingRight=4;overflow=hidden;points=[[0,0.5],[1,0.5]];portConstraint=eastwest;rotatable=0;" vertex="1" parent="cGsl6UHjNJ5qutNKCn_d-2">
          <mxGeometry y="30" width="140" height="140" as="geometry" />
        </mxCell>
        <mxCell id="cGsl6UHjNJ5qutNKCn_d-4" value="ALIMENT" style="swimlane;fontStyle=0;childLayout=stackLayout;horizontal=1;startSize=30;horizontalStack=0;resizeParent=1;resizeParentMax=0;resizeLast=0;collapsible=1;marginBottom=0;" vertex="1" parent="cGsl6UHjNJ5qutNKCn_d-1">
          <mxGeometry x="350" y="80" width="140" height="110" as="geometry" />
        </mxCell>
        <mxCell id="W_QgTbFiwIM0ZCdwzRpV-17" value="" style="endArrow=none;html=1;rounded=0;" edge="1" parent="cGsl6UHjNJ5qutNKCn_d-4">
          <mxGeometry width="50" height="50" relative="1" as="geometry">
            <mxPoint x="10" y="55" as="sourcePoint" />
            <mxPoint x="70" y="55" as="targetPoint" />
          </mxGeometry>
        </mxCell>
        <mxCell id="cGsl6UHjNJ5qutNKCn_d-5" value="ID_ALIMENT&#xa;&#xa;DATE&#xa;&#xa;CALORIES" style="text;strokeColor=none;fillColor=none;align=left;verticalAlign=middle;spacingLeft=4;spacingRight=4;overflow=hidden;points=[[0,0.5],[1,0.5]];portConstraint=eastwest;rotatable=0;" vertex="1" parent="cGsl6UHjNJ5qutNKCn_d-4">
          <mxGeometry y="30" width="140" height="80" as="geometry" />
        </mxCell>
        <mxCell id="cGsl6UHjNJ5qutNKCn_d-6" value="COMPOSITION" style="swimlane;fontStyle=0;childLayout=stackLayout;horizontal=1;startSize=30;horizontalStack=0;resizeParent=1;resizeParentMax=0;resizeLast=0;collapsible=1;marginBottom=0;" vertex="1" parent="cGsl6UHjNJ5qutNKCn_d-1">
          <mxGeometry x="687" y="90" width="140" height="90" as="geometry" />
        </mxCell>
        <mxCell id="fxmTqnYD-4aVfmm8E6T3-12" value="" style="endArrow=none;html=1;rounded=0;" edge="1" parent="cGsl6UHjNJ5qutNKCn_d-6">
          <mxGeometry width="50" height="50" relative="1" as="geometry">
            <mxPoint x="13" y="59.41" as="sourcePoint" />
            <mxPoint x="103" y="59.41" as="targetPoint" />
          </mxGeometry>
        </mxCell>
        <mxCell id="cGsl6UHjNJ5qutNKCn_d-7" value="ID_COMPOSITION&#xa;&#xa;LIBELLE" style="text;strokeColor=none;fillColor=none;align=left;verticalAlign=middle;spacingLeft=4;spacingRight=4;overflow=hidden;points=[[0,0.5],[1,0.5]];portConstraint=eastwest;rotatable=0;" vertex="1" parent="cGsl6UHjNJ5qutNKCn_d-6">
          <mxGeometry y="30" width="140" height="60" as="geometry" />
        </mxCell>
        <mxCell id="cGsl6UHjNJ5qutNKCn_d-17" value="SPORT" style="swimlane;fontStyle=0;childLayout=stackLayout;horizontal=1;startSize=30;horizontalStack=0;resizeParent=1;resizeParentMax=0;resizeLast=0;collapsible=1;marginBottom=0;" vertex="1" parent="cGsl6UHjNJ5qutNKCn_d-1">
          <mxGeometry x="10" y="320" width="140" height="90" as="geometry" />
        </mxCell>
        <mxCell id="W_QgTbFiwIM0ZCdwzRpV-10" value="" style="endArrow=none;html=1;rounded=0;" edge="1" parent="cGsl6UHjNJ5qutNKCn_d-17">
          <mxGeometry width="50" height="50" relative="1" as="geometry">
            <mxPoint x="10" y="59.75999999999999" as="sourcePoint" />
            <mxPoint x="60" y="59.75999999999999" as="targetPoint" />
          </mxGeometry>
        </mxCell>
        <mxCell id="cGsl6UHjNJ5qutNKCn_d-18" value="ID_SPORT&#xa;&#xa;LIBELLE" style="text;strokeColor=none;fillColor=none;align=left;verticalAlign=middle;spacingLeft=4;spacingRight=4;overflow=hidden;points=[[0,0.5],[1,0.5]];portConstraint=eastwest;rotatable=0;" vertex="1" parent="cGsl6UHjNJ5qutNKCn_d-17">
          <mxGeometry y="30" width="140" height="60" as="geometry" />
        </mxCell>
        <mxCell id="cGsl6UHjNJ5qutNKCn_d-19" value="TYPE_ALIMENT" style="swimlane;fontStyle=0;childLayout=stackLayout;horizontal=1;startSize=30;horizontalStack=0;resizeParent=1;resizeParentMax=0;resizeLast=0;collapsible=1;marginBottom=0;" vertex="1" parent="cGsl6UHjNJ5qutNKCn_d-1">
          <mxGeometry x="440" y="320" width="140" height="90" as="geometry" />
        </mxCell>
        <mxCell id="fxmTqnYD-4aVfmm8E6T3-0" value="" style="endArrow=none;html=1;rounded=0;" edge="1" parent="cGsl6UHjNJ5qutNKCn_d-19">
          <mxGeometry width="50" height="50" relative="1" as="geometry">
            <mxPoint x="10" y="59.5" as="sourcePoint" />
            <mxPoint x="56" y="59.5" as="targetPoint" />
          </mxGeometry>
        </mxCell>
        <mxCell id="cGsl6UHjNJ5qutNKCn_d-20" value="ID_TYPE&#xa;&#xa;LIBELLE" style="text;strokeColor=none;fillColor=none;align=left;verticalAlign=middle;spacingLeft=4;spacingRight=4;overflow=hidden;points=[[0,0.5],[1,0.5]];portConstraint=eastwest;rotatable=0;" vertex="1" parent="cGsl6UHjNJ5qutNKCn_d-19">
          <mxGeometry y="30" width="140" height="60" as="geometry" />
        </mxCell>
        <mxCell id="V3D6cUp_pwJ4s5y8st8d-0" value="" style="endArrow=classic;html=1;rounded=0;" edge="1" parent="cGsl6UHjNJ5qutNKCn_d-1" source="cGsl6UHjNJ5qutNKCn_d-3" target="cGsl6UHjNJ5qutNKCn_d-17">
          <mxGeometry width="50" height="50" relative="1" as="geometry">
            <mxPoint x="90" y="270" as="sourcePoint" />
            <mxPoint x="220" y="380" as="targetPoint" />
          </mxGeometry>
        </mxCell>
        <mxCell id="W_QgTbFiwIM0ZCdwzRpV-0" value="CONSOMMER" style="swimlane;fontStyle=0;childLayout=stackLayout;horizontal=1;startSize=30;horizontalStack=0;resizeParent=1;resizeParentMax=0;resizeLast=0;collapsible=1;marginBottom=0;" vertex="1" parent="cGsl6UHjNJ5qutNKCn_d-1">
          <mxGeometry x="180" y="80" width="140" height="110" as="geometry" />
        </mxCell>
        <mxCell id="W_QgTbFiwIM0ZCdwzRpV-11" value="" style="endArrow=none;html=1;rounded=0;" edge="1" parent="W_QgTbFiwIM0ZCdwzRpV-0">
          <mxGeometry width="50" height="50" relative="1" as="geometry">
            <mxPoint x="10" y="54.51999999999998" as="sourcePoint" />
            <mxPoint x="100" y="54.51999999999998" as="targetPoint" />
          </mxGeometry>
        </mxCell>
        <mxCell id="W_QgTbFiwIM0ZCdwzRpV-1" value="ID_UTILISATEUR&#xa;&#xa;ID_ALIMENT&#xa;&#xa;QUANTITE" style="text;strokeColor=none;fillColor=none;align=left;verticalAlign=middle;spacingLeft=4;spacingRight=4;overflow=hidden;points=[[0,0.5],[1,0.5]];portConstraint=eastwest;rotatable=0;fontStyle=0" vertex="1" parent="W_QgTbFiwIM0ZCdwzRpV-0">
          <mxGeometry y="30" width="140" height="80" as="geometry" />
        </mxCell>
        <mxCell id="W_QgTbFiwIM0ZCdwzRpV-12" value="" style="endArrow=none;html=1;rounded=0;" edge="1" parent="W_QgTbFiwIM0ZCdwzRpV-0">
          <mxGeometry width="50" height="50" relative="1" as="geometry">
            <mxPoint x="10" y="79.99999999999997" as="sourcePoint" />
            <mxPoint x="70" y="80" as="targetPoint" />
          </mxGeometry>
        </mxCell>
        <mxCell id="W_QgTbFiwIM0ZCdwzRpV-5" style="edgeStyle=orthogonalEdgeStyle;rounded=0;orthogonalLoop=1;jettySize=auto;html=1;exitX=1;exitY=0.5;exitDx=0;exitDy=0;" edge="1" parent="cGsl6UHjNJ5qutNKCn_d-1" source="W_QgTbFiwIM0ZCdwzRpV-1" target="cGsl6UHjNJ5qutNKCn_d-5">
          <mxGeometry relative="1" as="geometry" />
        </mxCell>
        <mxCell id="W_QgTbFiwIM0ZCdwzRpV-7" style="edgeStyle=orthogonalEdgeStyle;rounded=0;orthogonalLoop=1;jettySize=auto;html=1;exitX=0;exitY=0.5;exitDx=0;exitDy=0;entryX=0.993;entryY=0.357;entryDx=0;entryDy=0;entryPerimeter=0;" edge="1" parent="cGsl6UHjNJ5qutNKCn_d-1" source="W_QgTbFiwIM0ZCdwzRpV-1" target="cGsl6UHjNJ5qutNKCn_d-3">
          <mxGeometry relative="1" as="geometry" />
        </mxCell>
        <mxCell id="W_QgTbFiwIM0ZCdwzRpV-13" value="CONTENIR" style="swimlane;fontStyle=0;childLayout=stackLayout;horizontal=1;startSize=30;horizontalStack=0;resizeParent=1;resizeParentMax=0;resizeLast=0;collapsible=1;marginBottom=0;" vertex="1" parent="cGsl6UHjNJ5qutNKCn_d-1">
          <mxGeometry x="260" y="320" width="140" height="90" as="geometry" />
        </mxCell>
        <mxCell id="W_QgTbFiwIM0ZCdwzRpV-14" value="" style="endArrow=none;html=1;rounded=0;" edge="1" parent="W_QgTbFiwIM0ZCdwzRpV-13">
          <mxGeometry width="50" height="50" relative="1" as="geometry">
            <mxPoint x="10" y="59.75999999999999" as="sourcePoint" />
            <mxPoint x="60" y="59.75999999999999" as="targetPoint" />
          </mxGeometry>
        </mxCell>
        <mxCell id="W_QgTbFiwIM0ZCdwzRpV-15" value="ID_ALIMENT&#xa;&#xa;RATIO" style="text;strokeColor=none;fillColor=none;align=left;verticalAlign=middle;spacingLeft=4;spacingRight=4;overflow=hidden;points=[[0,0.5],[1,0.5]];portConstraint=eastwest;rotatable=0;" vertex="1" parent="W_QgTbFiwIM0ZCdwzRpV-13">
          <mxGeometry y="30" width="140" height="60" as="geometry" />
        </mxCell>
        <mxCell id="W_QgTbFiwIM0ZCdwzRpV-18" value="" style="endArrow=classic;startArrow=classic;html=1;rounded=0;exitX=0.5;exitY=0;exitDx=0;exitDy=0;entryX=0.243;entryY=1;entryDx=0;entryDy=0;entryPerimeter=0;" edge="1" parent="cGsl6UHjNJ5qutNKCn_d-1" source="W_QgTbFiwIM0ZCdwzRpV-13" target="cGsl6UHjNJ5qutNKCn_d-5">
          <mxGeometry width="50" height="50" relative="1" as="geometry">
            <mxPoint x="390" y="270" as="sourcePoint" />
            <mxPoint x="400" y="190" as="targetPoint" />
          </mxGeometry>
        </mxCell>
        <mxCell id="v01Q2UWqzAGjEGVasom4-0" value="" style="endArrow=classic;html=1;rounded=0;entryX=0.5;entryY=0;entryDx=0;entryDy=0;exitX=0.729;exitY=1.013;exitDx=0;exitDy=0;exitPerimeter=0;" edge="1" parent="cGsl6UHjNJ5qutNKCn_d-1" source="cGsl6UHjNJ5qutNKCn_d-5" target="cGsl6UHjNJ5qutNKCn_d-19">
          <mxGeometry width="50" height="50" relative="1" as="geometry">
            <mxPoint x="480" y="190" as="sourcePoint" />
            <mxPoint x="440" y="220" as="targetPoint" />
          </mxGeometry>
        </mxCell>
        <mxCell id="fxmTqnYD-4aVfmm8E6T3-5" style="edgeStyle=orthogonalEdgeStyle;rounded=0;orthogonalLoop=1;jettySize=auto;html=1;exitX=0;exitY=0.5;exitDx=0;exitDy=0;entryX=1;entryY=0.5;entryDx=0;entryDy=0;" edge="1" parent="cGsl6UHjNJ5qutNKCn_d-1" target="cGsl6UHjNJ5qutNKCn_d-5">
          <mxGeometry relative="1" as="geometry">
            <mxPoint x="520" y="150" as="sourcePoint" />
          </mxGeometry>
        </mxCell>
        <mxCell id="fxmTqnYD-4aVfmm8E6T3-7" style="edgeStyle=orthogonalEdgeStyle;rounded=0;orthogonalLoop=1;jettySize=auto;html=1;exitX=1;exitY=0.5;exitDx=0;exitDy=0;" edge="1" parent="cGsl6UHjNJ5qutNKCn_d-1" target="cGsl6UHjNJ5qutNKCn_d-7">
          <mxGeometry relative="1" as="geometry">
            <mxPoint x="660" y="150" as="sourcePoint" />
          </mxGeometry>
        </mxCell>
        <mxCell id="fxmTqnYD-4aVfmm8E6T3-8" value="SE_COMPOSER" style="swimlane;fontStyle=0;childLayout=stackLayout;horizontal=1;startSize=30;horizontalStack=0;resizeParent=1;resizeParentMax=0;resizeLast=0;collapsible=1;marginBottom=0;" vertex="1" parent="cGsl6UHjNJ5qutNKCn_d-1">
          <mxGeometry x="520" y="80" width="140" height="110" as="geometry" />
        </mxCell>
        <mxCell id="fxmTqnYD-4aVfmm8E6T3-9" value="" style="endArrow=none;html=1;rounded=0;" edge="1" parent="fxmTqnYD-4aVfmm8E6T3-8">
          <mxGeometry width="50" height="50" relative="1" as="geometry">
            <mxPoint x="10" y="55" as="sourcePoint" />
            <mxPoint x="70" y="55" as="targetPoint" />
          </mxGeometry>
        </mxCell>
        <mxCell id="fxmTqnYD-4aVfmm8E6T3-10" value="ID_ALIMENT&#xa;&#xa;ID_COMPOSITION&#xa;&#xa;RATIO" style="text;strokeColor=none;fillColor=none;align=left;verticalAlign=middle;spacingLeft=4;spacingRight=4;overflow=hidden;points=[[0,0.5],[1,0.5]];portConstraint=eastwest;rotatable=0;" vertex="1" parent="fxmTqnYD-4aVfmm8E6T3-8">
          <mxGeometry y="30" width="140" height="80" as="geometry" />
        </mxCell>
        <mxCell id="fxmTqnYD-4aVfmm8E6T3-11" value="" style="endArrow=none;html=1;rounded=0;" edge="1" parent="fxmTqnYD-4aVfmm8E6T3-8">
          <mxGeometry width="50" height="50" relative="1" as="geometry">
            <mxPoint x="10" y="80" as="sourcePoint" />
            <mxPoint x="100" y="80" as="targetPoint" />
          </mxGeometry>
        </mxCell>
      </root>
    </mxGraphModel>
  </diagram>
</mxfile>
